<svg width="9342" height="5086" viewBox="0 0 9342 5086" fill="none" xmlns="http://www.w3.org/2000/svg">
<path d="M229.839 1122.11L201 606.602L8939.41 117.749L8997.08 1148.76" stroke="#CDBC8A" stroke-width="120"/>
<path d="M9168.32 3931.63L9199.3 4485.5L449.746 4974.98L387.777 3867.25" stroke="#CDBC8A" stroke-width="120"/>
<path d="M240.823 3918.48L209 4481.08L8944.97 4975.22L9012.91 3774.14" stroke="#CDBC8A" stroke-width="120"/>
<path d="M9160.93 1141.77L9189.41 638.362L431.752 143L370.963 1217.71" stroke="#CDBC8A" stroke-width="120"/>
<path d="M1242 3161V3141L1292 3123C1318.67 3112.33 1339.33 3099.67 1354 3085C1368.67 3069 1380.67 3047 1390 3019L1802 1837H1972L2378 3027C2388.67 3056.33 2400.67 3079 2414 3095C2427.33 3109.67 2448 3122.33 2476 3133L2500 3141V3161H1992V3141L2022 3131C2050 3120.33 2066.67 3105.67 2072 3087C2078.67 3067 2078 3043.67 2070 3017L1976 2729H1532L1436 3011C1426.67 3040.33 1423.33 3063.67 1426 3081C1430 3098.33 1446 3112.33 1474 3123L1518 3141V3161H1242ZM1546 2689H1964L1762 2067L1546 2689ZM2422.97 3161V3141L2462.97 3125C2489.64 3115.67 2506.97 3103 2514.97 3087C2524.3 3071 2528.97 3050.33 2528.97 3025V1979C2528.97 1952.33 2524.3 1931 2514.97 1915C2506.97 1899 2489.64 1886.33 2462.97 1877L2422.97 1861V1841H2930.97V1861L2896.97 1875C2871.64 1884.33 2854.3 1897 2844.97 1913C2835.64 1927.67 2830.97 1948.33 2830.97 1975V2461H3308.97V1975C3308.97 1948.33 3304.3 1927.67 3294.97 1913C3286.97 1897 3269.64 1884.33 3242.97 1875L3206.97 1861V1841H3716.97V1861L3676.97 1877C3651.64 1886.33 3634.3 1899 3624.97 1915C3615.64 1931 3610.97 1952.33 3610.97 1979V3025C3610.97 3050.33 3615.64 3071 3624.97 3087C3634.3 3103 3651.64 3115.67 3676.97 3125L3716.97 3141V3161H3206.97V3141L3242.97 3129C3269.64 3118.33 3286.97 3105.67 3294.97 3091C3304.3 3075 3308.97 3053.67 3308.97 3027V2501H2830.97V3027C2830.97 3076.33 2852.97 3110.33 2896.97 3129L2930.97 3141V3161H2422.97ZM4320.58 3197C4191.24 3197 4073.91 3171 3968.58 3119C3864.58 3065.67 3781.91 2987 3720.58 2883C3659.24 2779 3628.58 2651.67 3628.58 2501C3628.58 2386.33 3647.24 2285.67 3684.58 2199C3721.91 2112.33 3772.58 2039.67 3836.58 1981C3901.91 1922.33 3976.58 1878.33 4060.58 1849C4145.91 1819.67 4235.91 1805 4330.58 1805C4406.58 1805 4476.58 1813.67 4540.58 1831C4604.58 1848.33 4664.58 1872.33 4720.58 1903L4728.58 2149H4708.58L4608.58 1989C4595.24 1963.67 4580.58 1941 4564.58 1921C4548.58 1899.67 4528.58 1883.67 4504.58 1873C4484.58 1863.67 4464.58 1857 4444.58 1853C4425.91 1847.67 4401.91 1845 4372.58 1845C4295.24 1845 4224.58 1865.67 4160.58 1907C4097.91 1948.33 4047.24 2017 4008.58 2113C3971.24 2207.67 3952.58 2337.67 3952.58 2503C3952.58 2667 3970.58 2797 4006.58 2893C4042.58 2987.67 4091.24 3055.67 4152.58 3097C4215.24 3137 4285.24 3157 4362.58 3157C4405.24 3157 4439.24 3154.33 4464.58 3149C4489.91 3142.33 4515.24 3133 4540.58 3121C4565.91 3110.33 4585.24 3095 4598.58 3075C4611.91 3053.67 4623.91 3031 4634.58 3007L4722.58 2811H4742.58L4736.58 3097C4680.58 3126.33 4617.91 3150.33 4548.58 3169C4479.24 3187.67 4403.24 3197 4320.58 3197Z" fill="#CDBC8A"/>
<path d="M4372 1810H8438.5" stroke="#CDBC8A" stroke-width="10"/>
<path d="M4372 3188H8438.5" stroke="#CDBC8A" stroke-width="10"/>
<path d="M5145 2204L5240.6 1924H5292.6L5386.6 2204H5351L5267.4 1948.8H5265.8L5180.2 2204H5145ZM5192.2 2116.4L5201.8 2089.2H5328.6L5338.2 2116.4H5192.2ZM5522.89 2204V1924H5556.49V2177.2H5686.89V2204H5522.89ZM5834.78 2204V1924H6007.98V1951.6H5868.38V2049.2H5995.98V2076.4H5868.38V2176.4H6007.98V2204H5834.78ZM6145.91 2204L6231.51 2062.8L6145.91 1924H6183.91L6251.91 2038.4H6253.51L6318.31 1924H6355.91L6270.31 2064L6356.31 2204H6318.31L6251.11 2088.8H6249.51L6183.91 2204H6145.91ZM6484.36 2204L6579.96 1924H6631.96L6725.96 2204H6690.36L6606.76 1948.8H6605.16L6519.56 2204H6484.36ZM6531.56 2116.4L6541.16 2089.2H6667.96L6677.56 2116.4H6531.56ZM6862.25 2204V1924H6910.25L7043.45 2166.4H7045.05V1924H7078.65V2204H7030.65L6897.45 1961.6H6895.85V2204H6862.25ZM7238.59 2204V1924H7324.59C7357.39 1924 7384.46 1929.73 7405.79 1941.2C7427.13 1952.4 7442.86 1968.53 7452.99 1989.6C7463.39 2010.4 7468.59 2035.47 7468.59 2064.8C7468.59 2093.6 7463.39 2118.4 7452.99 2139.2C7442.86 2160 7427.13 2176 7405.79 2187.2C7384.46 2198.4 7357.39 2204 7324.59 2204H7238.59ZM7272.19 2176H7323.79C7350.99 2176 7372.59 2171.6 7388.59 2162.8C7404.86 2153.73 7416.46 2140.93 7423.39 2124.4C7430.33 2107.6 7433.79 2087.73 7433.79 2064.8C7433.79 2041.33 7430.33 2021.2 7423.39 2004.4C7416.46 1987.6 7404.86 1974.67 7388.59 1965.6C7372.59 1956.53 7350.99 1952 7323.79 1952H7272.19V2176ZM7624.7 2204V1924H7797.9V1951.6H7658.3V2049.2H7785.9V2076.4H7658.3V2176.4H7797.9V2204H7624.7ZM7951.83 2204V1924H8042.23C8064.09 1924 8081.96 1927.73 8095.83 1935.2C8109.69 1942.4 8119.96 1952.13 8126.63 1964.4C8133.29 1976.67 8136.63 1990.53 8136.63 2006C8136.63 2020.93 8133.16 2034.67 8126.23 2047.2C8119.56 2059.73 8109.16 2069.73 8095.03 2077.2C8080.89 2084.67 8062.76 2088.4 8040.63 2088.4H7985.43V2204H7951.83ZM8099.83 2204L8038.23 2078.8H8075.83L8139.43 2204H8099.83ZM7985.43 2062H8039.83C8061.16 2062 8076.76 2056.8 8086.63 2046.4C8096.76 2036 8101.83 2022.67 8101.83 2006.4C8101.83 1989.87 8096.89 1976.8 8087.03 1967.2C8077.43 1957.33 8061.56 1952.4 8039.43 1952.4H7985.43V2062Z" fill="#CDBC8A"/>
<path d="M5988.8 2630V2350H6022.4V2630H5988.8ZM5810 2630V2350H5843.6V2630H5810ZM5837.2 2501.2V2473.6H5997.2V2501.2H5837.2ZM6182.44 2630V2350H6355.64V2377.6H6216.04V2475.2H6343.64V2502.4H6216.04V2602.4H6355.64V2630H6182.44ZM6493.56 2630L6589.16 2350H6641.16L6735.16 2630H6699.56L6615.96 2374.8H6614.36L6528.76 2630H6493.56ZM6540.76 2542.4L6550.36 2515.2H6677.16L6686.76 2542.4H6540.76ZM6871.45 2630V2350H6905.05V2603.2H7035.45V2630H6871.45ZM7206.41 2630V2377.6H7122.81V2350H7323.61V2377.6H7240.01V2630H7206.41ZM7646.3 2630V2350H7679.9V2630H7646.3ZM7467.5 2630V2350H7501.1V2630H7467.5ZM7494.7 2501.2V2473.6H7654.7V2501.2H7494.7Z" fill="#CDBC8A"/>
<path d="M5196.6 3101.8C5169.13 3101.8 5145.4 3095.8 5125.4 3083.8C5105.4 3071.53 5089.93 3054.6 5079 3033C5068.33 3011.13 5063 2985.8 5063 2957C5063 2928.2 5068.33 2903 5079 2881.4C5089.93 2859.53 5105.4 2842.6 5125.4 2830.6C5145.4 2818.33 5169.13 2812.2 5196.6 2812.2C5228.87 2812.2 5255 2819.8 5275 2835C5295 2850.2 5307.8 2871.67 5313.4 2899.4H5276.2C5271.93 2882.07 5263.27 2868.2 5250.2 2857.8C5237.13 2847.4 5219.27 2842.2 5196.6 2842.2C5176.6 2842.2 5159.13 2846.87 5144.2 2856.2C5129.27 2865.27 5117.67 2878.47 5109.4 2895.8C5101.4 2912.87 5097.4 2933.27 5097.4 2957C5097.4 2980.73 5101.4 3001.27 5109.4 3018.6C5117.67 3035.67 5129.27 3048.87 5144.2 3058.2C5159.13 3067.27 5176.6 3071.8 5196.6 3071.8C5219.27 3071.8 5237.27 3066.73 5250.6 3056.6C5264.2 3046.2 5273.13 3032.6 5277.4 3015.8H5313.4C5307.8 3042.73 5295 3063.8 5275 3079C5255 3094.2 5228.87 3101.8 5196.6 3101.8ZM5603.52 3101.8C5576.05 3101.8 5551.92 3095.8 5531.12 3083.8C5510.58 3071.53 5494.45 3054.6 5482.72 3033C5471.25 3011.13 5465.52 2985.8 5465.52 2957C5465.52 2928.47 5471.25 2903.4 5482.72 2881.8C5494.45 2859.93 5510.58 2842.87 5531.12 2830.6C5551.92 2818.33 5576.05 2812.2 5603.52 2812.2C5631.25 2812.2 5655.38 2818.33 5675.92 2830.6C5696.72 2842.87 5712.85 2859.93 5724.32 2881.8C5735.78 2903.4 5741.52 2928.47 5741.52 2957C5741.52 2985.8 5735.78 3011.13 5724.32 3033C5712.85 3054.6 5696.72 3071.53 5675.92 3083.8C5655.38 3095.8 5631.25 3101.8 5603.52 3101.8ZM5603.52 3072.2C5624.05 3072.2 5642.05 3067.67 5657.52 3058.6C5673.25 3049.27 5685.38 3036.07 5693.92 3019C5702.72 3001.67 5707.12 2981 5707.12 2957C5707.12 2933 5702.72 2912.47 5693.92 2895.4C5685.38 2878.07 5673.25 2864.87 5657.52 2855.8C5642.05 2846.73 5624.05 2842.2 5603.52 2842.2C5582.98 2842.2 5564.85 2846.73 5549.12 2855.8C5533.65 2864.87 5521.52 2878.07 5512.72 2895.4C5504.18 2912.47 5499.92 2933 5499.92 2957C5499.92 2981 5504.18 3001.67 5512.72 3019C5521.52 3036.07 5533.65 3049.27 5549.12 3058.6C5564.85 3067.67 5582.98 3072.2 5603.52 3072.2ZM5897.42 3097V2817H5945.42L6078.62 3059.4H6080.22V2817H6113.82V3097H6065.82L5932.62 2854.6H5931.02V3097H5897.42ZM6366.97 3101.8C6346.43 3101.8 6328.57 3098.07 6313.37 3090.6C6298.17 3083.13 6286.43 3072.73 6278.17 3059.4C6269.9 3046.07 6265.77 3030.6 6265.77 3013H6300.97C6300.97 3023.93 6303.37 3034.07 6308.17 3043.4C6312.97 3052.47 6320.3 3059.8 6330.17 3065.4C6340.03 3070.73 6352.43 3073.4 6367.37 3073.4C6379.37 3073.4 6389.9 3071.67 6398.97 3068.2C6408.03 3064.73 6415.1 3059.53 6420.17 3052.6C6425.5 3045.67 6428.17 3037 6428.17 3026.6C6428.17 3016.2 6425.77 3007.67 6420.97 3001C6416.43 2994.07 6410.17 2988.33 6402.17 2983.8C6394.17 2979.27 6385.23 2975.4 6375.37 2972.2C6365.77 2968.73 6355.9 2965.27 6345.77 2961.8C6321.5 2953.27 6303.63 2943 6292.17 2931C6280.97 2918.73 6275.37 2903.67 6275.37 2885.8C6275.37 2871.67 6278.83 2859.13 6285.77 2848.2C6292.97 2837 6303.1 2828.2 6316.17 2821.8C6329.5 2815.4 6345.23 2812.2 6363.37 2812.2C6381.23 2812.2 6396.7 2815.53 6409.77 2822.2C6423.1 2828.87 6433.5 2838.07 6440.97 2849.8C6448.43 2861.27 6452.17 2874.6 6452.17 2889.8H6416.97C6416.97 2879.93 6414.83 2871.27 6410.57 2863.8C6406.3 2856.33 6400.03 2850.47 6391.77 2846.2C6383.5 2841.67 6373.1 2839.4 6360.57 2839.4C6350.7 2839.4 6341.77 2840.87 6333.77 2843.8C6326.03 2846.73 6319.9 2851.4 6315.37 2857.8C6311.1 2864.2 6308.97 2872.47 6308.97 2882.6C6308.97 2891.13 6310.7 2898.2 6314.17 2903.8C6317.63 2909.4 6322.7 2914.33 6329.37 2918.6C6336.3 2922.6 6344.7 2926.6 6354.57 2930.6C6364.7 2934.33 6376.3 2938.6 6389.37 2943.4C6402.97 2948.2 6415.1 2953.93 6425.77 2960.6C6436.7 2967 6445.23 2975.13 6451.37 2985C6457.77 2994.87 6460.97 3007.4 6460.97 3022.6C6460.97 3036.2 6457.5 3049.13 6450.57 3061.4C6443.63 3073.4 6433.23 3083.13 6419.37 3090.6C6405.5 3098.07 6388.03 3101.8 6366.97 3101.8ZM6714.6 3101.8C6695.4 3101.8 6677.93 3097.93 6662.2 3090.2C6646.47 3082.47 6633.93 3070.73 6624.6 3055C6615.53 3039 6611 3018.6 6611 2993.8V2817H6644.6V2994.2C6644.6 3012.33 6647.53 3027.13 6653.4 3038.6C6659.53 3050.07 6667.93 3058.47 6678.6 3063.8C6689.27 3069.13 6701.53 3071.8 6715.4 3071.8C6729.53 3071.8 6741.8 3069.13 6752.2 3063.8C6762.6 3058.47 6770.73 3050.07 6776.6 3038.6C6782.47 3027.13 6785.4 3012.33 6785.4 2994.2V2817H6819V2993.8C6819 3018.6 6814.33 3039 6805 3055C6795.67 3070.73 6783.13 3082.47 6767.4 3090.2C6751.67 3097.93 6734.07 3101.8 6714.6 3101.8ZM6976.84 3097V2817H7010.44V3070.2H7140.84V3097H6976.84ZM7311.8 3097V2844.6H7228.2V2817H7429V2844.6H7345.4V3097H7311.8ZM7572.89 3097V2817H7606.49V3097H7572.89ZM7766.42 3097V2817H7814.42L7947.62 3059.4H7949.22V2817H7982.82V3097H7934.82L7801.62 2854.6H7800.02V3097H7766.42ZM8266.77 3101.8C8240.9 3101.8 8218.37 3095.8 8199.17 3083.8C8179.97 3071.53 8165.03 3054.6 8154.37 3033C8143.97 3011.4 8138.77 2986.2 8138.77 2957.4C8138.77 2928.87 8144.23 2903.67 8155.17 2881.8C8166.37 2859.93 8182.1 2842.87 8202.37 2830.6C8222.9 2818.33 8247.03 2812.2 8274.77 2812.2C8306.23 2812.2 8332.5 2819.8 8353.57 2835C8374.63 2849.93 8388.1 2870.87 8393.97 2897.8H8355.17C8351.43 2881 8342.63 2867.67 8328.77 2857.8C8314.9 2847.93 8296.9 2843 8274.77 2843C8254.23 2843 8236.23 2847.67 8220.77 2857C8205.57 2866.07 8193.83 2879.13 8185.57 2896.2C8177.3 2913.27 8173.17 2933.67 8173.17 2957.4C8173.17 2981.13 8177.3 3001.67 8185.57 3019C8193.83 3036.07 8205.3 3049.13 8219.97 3058.2C8234.9 3067.27 8251.97 3071.8 8271.17 3071.8C8301.03 3071.8 8323.57 3063 8338.77 3045.4C8353.97 3027.8 8362.63 3003.93 8364.77 2973.8H8283.97V2947.4H8399.17V3097H8369.57L8365.57 3039.8H8363.97C8356.77 3053.13 8348.37 3064.47 8338.77 3073.8C8329.17 3083.13 8318.37 3090.2 8306.37 3095C8294.63 3099.53 8281.43 3101.8 8266.77 3101.8Z" fill="#CDBC8A"/>
<path d="M913.1 3877V3667H938.3V3856.9H1036.1V3877H913.1ZM1225.48 3877V3667H1250.68V3877H1225.48ZM1538.46 3880.6C1518.66 3880.6 1501.46 3876.1 1486.86 3867.1C1472.46 3857.9 1461.26 3845.2 1453.26 3829C1445.46 3812.6 1441.56 3793.6 1441.56 3772C1441.56 3750.4 1445.46 3731.5 1453.26 3715.3C1461.26 3698.9 1472.46 3686.2 1486.86 3677.2C1501.46 3668 1518.66 3663.4 1538.46 3663.4C1562.26 3663.4 1581.56 3669.1 1596.36 3680.5C1611.16 3691.9 1620.66 3708 1624.86 3728.8H1597.56C1594.16 3715.8 1587.56 3705.4 1577.76 3697.6C1568.16 3689.6 1555.06 3685.6 1538.46 3685.6C1524.06 3685.6 1511.46 3689.1 1500.66 3696.1C1490.06 3702.9 1481.86 3712.8 1476.06 3725.8C1470.26 3738.6 1467.36 3754 1467.36 3772C1467.36 3790 1470.26 3805.5 1476.06 3818.5C1481.86 3831.3 1490.06 3841.2 1500.66 3848.2C1511.46 3855 1524.06 3858.4 1538.46 3858.4C1555.06 3858.4 1568.16 3854.6 1577.76 3847C1587.56 3839.2 1594.16 3828.9 1597.56 3816.1H1624.86C1620.66 3836.3 1611.16 3852.1 1596.36 3863.5C1581.56 3874.9 1562.26 3880.6 1538.46 3880.6ZM1815.65 3877V3667H1945.55V3687.7H1840.85V3760.9H1936.55V3781.3H1840.85V3856.3H1945.55V3877H1815.65ZM2139.46 3877V3667H2164.66L2276.56 3835.6V3667H2301.76V3877H2276.56L2164.66 3708.4V3877H2139.46ZM2568.25 3880.6C2552.85 3880.6 2539.45 3877.8 2528.05 3872.2C2516.65 3866.6 2507.85 3858.8 2501.65 3848.8C2495.45 3838.8 2492.35 3827.2 2492.35 3814H2518.75C2518.75 3822.2 2520.65 3829.8 2524.45 3836.8C2528.25 3843.6 2533.75 3849.1 2540.95 3853.3C2548.35 3857.3 2557.45 3859.3 2568.25 3859.3C2577.65 3859.3 2585.65 3857.8 2592.25 3854.8C2599.05 3851.6 2604.15 3847.3 2607.55 3841.9C2611.15 3836.5 2612.95 3830.4 2612.95 3823.6C2612.95 3816 2611.25 3809.7 2607.85 3804.7C2604.65 3799.5 2600.15 3795.3 2594.35 3792.1C2588.55 3788.7 2581.85 3785.7 2574.25 3783.1C2566.65 3780.5 2558.45 3777.8 2549.65 3775C2532.05 3769.4 2519.25 3762.4 2511.25 3754C2503.45 3745.4 2499.55 3734.4 2499.55 3721C2499.55 3709.6 2502.15 3699.6 2507.35 3691C2512.75 3682.4 2520.35 3675.7 2530.15 3670.9C2540.15 3665.9 2551.95 3663.4 2565.55 3663.4C2578.95 3663.4 2590.55 3665.9 2600.35 3670.9C2610.35 3675.9 2618.15 3682.8 2623.75 3691.6C2629.35 3700.2 2632.15 3710.2 2632.15 3721.6H2605.75C2605.75 3715.8 2604.25 3710.1 2601.25 3704.5C2598.25 3698.9 2593.65 3694.3 2587.45 3690.7C2581.45 3686.9 2573.85 3685 2564.65 3685C2557.05 3684.8 2550.25 3686.1 2544.25 3688.9C2538.45 3691.5 2533.85 3695.3 2530.45 3700.3C2527.25 3705.3 2525.65 3711.4 2525.65 3718.6C2525.65 3725.4 2527.05 3730.9 2529.85 3735.1C2532.85 3739.3 2537.05 3742.9 2542.45 3745.9C2548.05 3748.7 2554.55 3751.3 2561.95 3753.7C2569.35 3756.1 2577.55 3758.8 2586.55 3761.8C2596.75 3765.2 2605.75 3769.4 2613.55 3774.4C2621.55 3779.2 2627.75 3785.4 2632.15 3793C2636.75 3800.6 2639.05 3810.3 2639.05 3822.1C2639.05 3832.1 2636.35 3841.6 2630.95 3850.6C2625.75 3859.4 2617.95 3866.6 2607.55 3872.2C2597.15 3877.8 2584.05 3880.6 2568.25 3880.6ZM2829.83 3877V3667H2959.73V3687.7H2855.03V3760.9H2950.73V3781.3H2855.03V3856.3H2959.73V3877H2829.83ZM3153.63 3877V3667H3207.63C3232.03 3667 3252.13 3671.3 3267.93 3679.9C3283.93 3688.3 3295.73 3700.4 3303.33 3716.2C3311.13 3731.8 3315.03 3750.6 3315.03 3772.6C3315.03 3794.2 3311.13 3812.8 3303.33 3828.4C3295.73 3844 3283.93 3856 3267.93 3864.4C3252.13 3872.8 3232.03 3877 3207.63 3877H3153.63ZM3178.83 3856H3207.03C3227.23 3856 3243.33 3852.7 3255.33 3846.1C3267.33 3839.3 3275.93 3829.7 3281.13 3817.3C3286.33 3804.7 3288.93 3789.8 3288.93 3772.6C3288.93 3755 3286.33 3739.9 3281.13 3727.3C3275.93 3714.7 3267.33 3705 3255.33 3698.2C3243.33 3691.4 3227.23 3688 3207.03 3688H3178.83V3856ZM3873.52 3877V3667H3898.72V3877H3873.52ZM3739.42 3877V3667H3764.62V3877H3739.42ZM3759.82 3780.4V3759.7H3879.82V3780.4H3759.82ZM4097.79 3877V3667H4227.69V3687.7H4122.99V3760.9H4218.69V3781.3H4122.99V3856.3H4227.69V3877H4097.79ZM4407.79 3877L4485.19 3667H4511.89L4588.99 3877H4561.99L4498.39 3698.5L4434.19 3877H4407.79ZM4443.19 3823L4450.39 3802.6H4545.49L4552.69 3823H4443.19ZM4774.1 3877V3667H4799.3V3856.9H4897.1V3877H4774.1ZM5101.98 3877V3687.7H5039.28V3667H5189.88V3687.7H5127.18V3877H5101.98ZM5509.51 3877V3667H5534.71V3877H5509.51ZM5375.41 3877V3667H5400.61V3877H5375.41ZM5395.81 3780.4V3759.7H5515.81V3780.4H5395.81ZM5953.55 3877L6030.95 3667H6057.65L6134.75 3877H6107.75L6044.15 3698.5L5979.95 3877H5953.55ZM5988.95 3823L5996.15 3802.6H6091.25L6098.45 3823H5988.95ZM6319.86 3877V3667H6373.86C6398.26 3667 6418.36 3671.3 6434.16 3679.9C6450.16 3688.3 6461.96 3700.4 6469.56 3716.2C6477.36 3731.8 6481.26 3750.6 6481.26 3772.6C6481.26 3794.2 6477.36 3812.8 6469.56 3828.4C6461.96 3844 6450.16 3856 6434.16 3864.4C6418.36 3872.8 6398.26 3877 6373.86 3877H6319.86ZM6345.06 3856H6373.26C6393.46 3856 6409.56 3852.7 6421.56 3846.1C6433.56 3839.3 6442.16 3829.7 6447.36 3817.3C6452.56 3804.7 6455.16 3789.8 6455.16 3772.6C6455.16 3755 6452.56 3739.9 6447.36 3727.3C6442.16 3714.7 6433.56 3705 6421.56 3698.2C6409.56 3691.4 6393.46 3688 6373.26 3688H6345.06V3856ZM6726.58 3877L6647.68 3667H6674.98L6741.28 3850.3L6808.18 3667H6834.88L6755.98 3877H6726.58ZM7017.85 3877V3667H7043.05V3877H7017.85ZM7309.54 3880.6C7294.14 3880.6 7280.74 3877.8 7269.34 3872.2C7257.94 3866.6 7249.14 3858.8 7242.94 3848.8C7236.74 3838.8 7233.64 3827.2 7233.64 3814H7260.04C7260.04 3822.2 7261.94 3829.8 7265.74 3836.8C7269.54 3843.6 7275.04 3849.1 7282.24 3853.3C7289.64 3857.3 7298.74 3859.3 7309.54 3859.3C7318.94 3859.3 7326.94 3857.8 7333.54 3854.8C7340.34 3851.6 7345.44 3847.3 7348.84 3841.9C7352.44 3836.5 7354.24 3830.4 7354.24 3823.6C7354.24 3816 7352.54 3809.7 7349.14 3804.7C7345.94 3799.5 7341.44 3795.3 7335.64 3792.1C7329.84 3788.7 7323.14 3785.7 7315.54 3783.1C7307.94 3780.5 7299.74 3777.8 7290.94 3775C7273.34 3769.4 7260.54 3762.4 7252.54 3754C7244.74 3745.4 7240.84 3734.4 7240.84 3721C7240.84 3709.6 7243.44 3699.6 7248.64 3691C7254.04 3682.4 7261.64 3675.7 7271.44 3670.9C7281.44 3665.9 7293.24 3663.4 7306.84 3663.4C7320.24 3663.4 7331.84 3665.9 7341.64 3670.9C7351.64 3675.9 7359.44 3682.8 7365.04 3691.6C7370.64 3700.2 7373.44 3710.2 7373.44 3721.6H7347.04C7347.04 3715.8 7345.54 3710.1 7342.54 3704.5C7339.54 3698.9 7334.94 3694.3 7328.74 3690.7C7322.74 3686.9 7315.14 3685 7305.94 3685C7298.34 3684.8 7291.54 3686.1 7285.54 3688.9C7279.74 3691.5 7275.14 3695.3 7271.74 3700.3C7268.54 3705.3 7266.94 3711.4 7266.94 3718.6C7266.94 3725.4 7268.34 3730.9 7271.14 3735.1C7274.14 3739.3 7278.34 3742.9 7283.74 3745.9C7289.34 3748.7 7295.84 3751.3 7303.24 3753.7C7310.64 3756.1 7318.84 3758.8 7327.84 3761.8C7338.04 3765.2 7347.04 3769.4 7354.84 3774.4C7362.84 3779.2 7369.04 3785.4 7373.44 3793C7378.04 3800.6 7380.34 3810.3 7380.34 3822.1C7380.34 3832.1 7377.64 3841.6 7372.24 3850.6C7367.04 3859.4 7359.24 3866.6 7348.84 3872.2C7338.44 3877.8 7325.34 3880.6 7309.54 3880.6ZM7659.92 3880.6C7640.72 3880.6 7623.82 3876.1 7609.22 3867.1C7594.62 3857.9 7583.22 3845.2 7575.02 3829C7566.82 3812.6 7562.72 3793.6 7562.72 3772C7562.72 3750.6 7566.82 3731.8 7575.02 3715.6C7583.22 3699.2 7594.62 3686.4 7609.22 3677.2C7623.82 3668 7640.72 3663.4 7659.92 3663.4C7679.52 3663.4 7696.62 3668 7711.22 3677.2C7725.82 3686.4 7737.12 3699.2 7745.12 3715.6C7753.12 3731.8 7757.12 3750.6 7757.12 3772C7757.12 3793.6 7753.12 3812.6 7745.12 3829C7737.12 3845.2 7725.82 3857.9 7711.22 3867.1C7696.62 3876.1 7679.52 3880.6 7659.92 3880.6ZM7659.92 3858.4C7674.32 3858.4 7686.82 3855 7697.42 3848.2C7708.22 3841.2 7716.52 3831.3 7722.32 3818.5C7728.32 3805.5 7731.32 3790 7731.32 3772C7731.32 3754 7728.32 3738.6 7722.32 3725.8C7716.52 3712.8 7708.22 3702.9 7697.42 3696.1C7686.82 3689.3 7674.32 3685.9 7659.92 3685.9C7645.72 3685.9 7633.22 3689.3 7622.42 3696.1C7611.82 3702.9 7603.52 3712.8 7597.52 3725.8C7591.52 3738.6 7588.52 3754 7588.52 3772C7588.52 3790 7591.52 3805.5 7597.52 3818.5C7603.52 3831.3 7611.82 3841.2 7622.42 3848.2C7633.22 3855 7645.72 3858.4 7659.92 3858.4ZM7947.95 3877V3667H8015.75C8032.15 3667 8045.55 3669.8 8055.95 3675.4C8066.35 3680.8 8074.05 3688.1 8079.05 3697.3C8084.05 3706.5 8086.55 3716.9 8086.55 3728.5C8086.55 3739.7 8083.95 3750 8078.75 3759.4C8073.75 3768.8 8065.95 3776.3 8055.35 3781.9C8044.75 3787.5 8031.15 3790.3 8014.55 3790.3H7973.15V3877H7947.95ZM8058.95 3877L8012.75 3783.1H8040.95L8088.65 3877H8058.95ZM7973.15 3770.5H8013.95C8029.95 3770.5 8041.65 3766.6 8049.05 3758.8C8056.65 3751 8060.45 3741 8060.45 3728.8C8060.45 3716.4 8056.75 3706.6 8049.35 3699.4C8042.15 3692 8030.25 3688.3 8013.65 3688.3H7973.15V3770.5ZM8347.44 3880.6C8332.04 3880.6 8318.64 3877.8 8307.24 3872.2C8295.84 3866.6 8287.04 3858.8 8280.84 3848.8C8274.64 3838.8 8271.54 3827.2 8271.54 3814H8297.94C8297.94 3822.2 8299.84 3829.8 8303.64 3836.8C8307.44 3843.6 8312.94 3849.1 8320.14 3853.3C8327.54 3857.3 8336.64 3859.3 8347.44 3859.3C8356.84 3859.3 8364.84 3857.8 8371.44 3854.8C8378.24 3851.6 8383.34 3847.3 8386.74 3841.9C8390.34 3836.5 8392.14 3830.4 8392.14 3823.6C8392.14 3816 8390.44 3809.7 8387.04 3804.7C8383.84 3799.5 8379.34 3795.3 8373.54 3792.1C8367.74 3788.7 8361.04 3785.7 8353.44 3783.1C8345.84 3780.5 8337.64 3777.8 8328.84 3775C8311.24 3769.4 8298.44 3762.4 8290.44 3754C8282.64 3745.4 8278.74 3734.4 8278.74 3721C8278.74 3709.6 8281.34 3699.6 8286.54 3691C8291.94 3682.4 8299.54 3675.7 8309.34 3670.9C8319.34 3665.9 8331.14 3663.4 8344.74 3663.4C8358.14 3663.4 8369.74 3665.9 8379.54 3670.9C8389.54 3675.9 8397.34 3682.8 8402.94 3691.6C8408.54 3700.2 8411.34 3710.2 8411.34 3721.6H8384.94C8384.94 3715.8 8383.44 3710.1 8380.44 3704.5C8377.44 3698.9 8372.84 3694.3 8366.64 3690.7C8360.64 3686.9 8353.04 3685 8343.84 3685C8336.24 3684.8 8329.44 3686.1 8323.44 3688.9C8317.64 3691.5 8313.04 3695.3 8309.64 3700.3C8306.44 3705.3 8304.84 3711.4 8304.84 3718.6C8304.84 3725.4 8306.24 3730.9 8309.04 3735.1C8312.04 3739.3 8316.24 3742.9 8321.64 3745.9C8327.24 3748.7 8333.74 3751.3 8341.14 3753.7C8348.54 3756.1 8356.74 3758.8 8365.74 3761.8C8375.94 3765.2 8384.94 3769.4 8392.74 3774.4C8400.74 3779.2 8406.94 3785.4 8411.34 3793C8415.94 3800.6 8418.24 3810.3 8418.24 3822.1C8418.24 3832.1 8415.54 3841.6 8410.14 3850.6C8404.94 3859.4 8397.14 3866.6 8386.74 3872.2C8376.34 3877.8 8363.24 3880.6 8347.44 3880.6Z" fill="#CDBC8A"/>
</svg>
